<?xml version="1.0" encoding="utf-8"?>
<!-- Generator: Adobe Illustrator 21.1.0, SVG Export Plug-In . SVG Version: 6.00 Build 0)  -->
<svg version="1.1" id="Layer_1" xmlns="http://www.w3.org/2000/svg" xmlns:xlink="http://www.w3.org/1999/xlink" x="0px" y="0px"
	 viewBox="0 0 531.1 77" style="enable-background:new 0 0 531.1 77;" xml:space="preserve">
<style type="text/css">
	.st0{fill:#FEFEFE;}
	.st1{fill:#195CAA;}
	.st2{fill:#E9232A;}
	.st3{fill:#FFFFFF;}
	.st4{fill:none;stroke:#FFFFFF;stroke-miterlimit:10;}
	.st5{fill:#525352;}
	.st6{fill:none;stroke:#FFFFFF;stroke-width:5;stroke-miterlimit:10;}
	.st7{fill:#BF2026;}
</style>
<g>
	<path class="st0" d="M35,70c-4.7-0.2-9.5-0.1-14.1-0.6c-5.5-0.6-10.1-2.8-12.7-8.1C6.6,58.1,6.6,54.6,7,51.2
		c0.2-1.5,1.2-2.4,2.7-2.4c3.7-0.1,7.3,0,11,0c1.4,0,2,0.8,2.2,2.1c0.5,3,1.3,3.8,4.4,3.8c6.4,0,12.8,0,19.2,0
		c3.3,0,5.1-1.9,5.4-5.1c0.1-1.9-0.6-3.1-2.5-3.4c-2.2-0.4-4.5-0.5-6.8-0.7c-5.6-0.5-11.3-0.9-16.9-1.5c-3.8-0.5-7.3-1.8-10.2-4.5
		c-2-2-3.2-4.4-3.4-7.2c-0.4-5.8,1-11.2,3.9-16.2c3.3-5.8,8.8-8.3,15.1-8.6c8.5-0.4,17-0.2,25.6-0.1c3,0,6,1,8.6,2.6
		c5.3,3.3,6.9,8.3,6.5,14.2c-0.2,3.6-0.9,4.1-4.5,4.1c-2.9,0-5.7,0-8.6,0c-2.1,0-2.8-0.6-3.1-2.6c-0.3-2.3-1.3-3.3-3.6-3.4
		c-6.3-0.1-12.6-0.1-18.9,0.1c-3.3,0.1-5,2.1-5.1,5.4c0,1.5,0.6,2.5,2,2.9c0.6,0.2,1.3,0.3,1.9,0.3c6.7,0.5,13.4,0.8,20,1.5
		c2.9,0.3,5.9,1.1,8.6,2.2c4.9,2,7.2,6,7.3,11.3c0,5.2-1.4,10.1-3.9,14.6c-3.2,5.7-8.4,8.4-14.6,8.9C44.6,69.9,39.7,69.8,35,70z"/>
	<path class="st0" d="M171.1,54.7c2.2,0,4.4,0,6.5,0c7.8,0,15.6,0,23.3,0c3.2,0,3.9,0.9,3.2,4c-0.6,2.6-1.1,5.2-1.6,7.9
		c-0.5,2.6-1.3,3.2-3.9,3.2c-16.9,0-33.8,0-50.7,0c-2.9,0-3.6-0.8-3-3.6c0.6-3.1,1.3-6.1,1.9-9.2c0.3-1.6,1.3-2.7,2.6-3.7
		c9.6-7.6,19.2-15.3,28.8-23c3.2-2.6,6.5-5.2,9.7-8.1c-0.5,0-1.1-0.1-1.6-0.1c-9.3,0-18.5,0-27.8,0c-0.5,0-1.1,0-1.6-0.1
		c-1.5-0.2-2.2-1-2-2.4c0.6-3.6,1.4-7.1,2.2-10.6c0.3-1.4,1.3-2,2.7-2.1c0.4,0,0.9,0,1.3,0c16.5,0,33,0,49.5,0c0.5,0,1.1,0,1.6,0
		c1.5,0.2,2.4,1.2,2.1,2.7c-0.7,3.6-1.4,7.3-2.4,10.9c-0.3,1.1-1.2,2.2-2.1,2.9c-12.4,9.9-24.9,19.8-37.4,29.7
		c-0.5,0.4-1,0.8-1.5,1.2C171,54.5,171.1,54.6,171.1,54.7z"/>
	<path class="st0" d="M481.9,69.8c-4,0-8,0.1-12,0c-5.1-0.2-9.8-1.5-13.4-5.5c-2.3-2.5-3.4-5.4-3.7-8.7c-0.4-4.4,0.7-8.6,1.6-12.8
		c2.3-10.9,4.6-21.9,7-32.8c0.5-2.4,1.3-3,3.7-3c3.1,0,6.1,0,9.2,0c2.6,0,3.4,1,2.9,3.5c-2.7,12.8-5.4,25.6-8.1,38.4
		c0,0.1-0.1,0.2-0.1,0.3c-0.6,4.1,0,5.6,4.4,5.5c6.7-0.1,13.4,0,20.1,0c4.1,0,5.7-1.1,6.6-5.1c1.8-7.9,3.4-15.9,5.1-23.8
		c1.1-5.2,2.2-10.5,3.3-15.7c0.5-2.5,1.3-3.1,3.8-3.1c2.9,0,5.8,0,8.8,0c3.1,0,3.8,0.8,3.1,3.9c-2.7,12.9-5.4,25.9-8.3,38.8
		c-1.2,5.4-3.4,10.4-7.5,14.3c-4,3.9-9,5.6-14.5,5.8C489.9,69.9,485.9,69.8,481.9,69.8z"/>
	<path class="st0" d="M105.5,69.8c-4,0-8,0.1-12,0c-5-0.2-9.6-1.5-13.1-5.3c-2.4-2.5-3.5-5.6-3.8-9C76,51.2,77.1,47,78,42.9
		c2.3-11,4.7-22,7-33c0.5-2.2,1.3-2.9,3.5-2.9c3.2,0,6.3,0,9.5,0c2.5,0,3.3,1,2.8,3.5c-2.7,12.8-5.4,25.7-8.1,38.5
		c0,0.1-0.1,0.2-0.1,0.3c-0.5,3.8-0.2,5.5,4.4,5.4c6.8-0.1,13.6,0,20.4,0c3.8,0,5.5-1.2,6.3-4.9c1.8-8,3.4-16,5.1-23.9
		c1.1-5.2,2.2-10.5,3.3-15.7c0.5-2.5,1.3-3.1,3.9-3.1c3.1,0,6.1,0,9.2,0c2.4,0,3.2,1,2.7,3.4c-2.8,13.1-5.5,26.2-8.4,39.2
		c-1.2,5.5-3.5,10.5-7.7,14.5c-4,3.8-8.9,5.5-14.3,5.7C113.6,69.9,109.5,69.8,105.5,69.8z"/>
	<path class="st0" d="M243.9,69.8c-4,0-8,0.1-12,0c-5.1-0.2-9.8-1.6-13.4-5.5c-2.3-2.5-3.4-5.4-3.7-8.7c-0.4-4.4,0.7-8.6,1.6-12.8
		c2.3-10.9,4.6-21.9,7-32.8c0.5-2.4,1.3-3,3.7-3c3.1,0,6.1,0,9.2,0c2.6,0,3.4,1,2.8,3.5c-2.7,12.8-5.4,25.6-8.1,38.4
		c0,0.2-0.1,0.4-0.1,0.6c-0.7,4,0.3,5.2,4.4,5.2c6.8,0,13.6,0,20.4,0c3.9,0,5.6-1.2,6.4-5c1.8-8,3.4-16,5.1-23.9
		c1.1-5.2,2.2-10.5,3.3-15.7c0.5-2.4,1.3-3,3.8-3c3.2,0,6.4,0,9.7,0c2,0,2.8,1.1,2.4,3c-2.8,13.3-5.6,26.5-8.5,39.8
		c-1.2,5.5-3.5,10.4-7.6,14.3c-4,3.8-8.9,5.4-14.3,5.6C251.9,69.9,247.9,69.8,243.9,69.8z"/>
	<path class="st0" d="M309.4,31.8c3.1,0,6.1,0,9.1,0c0.5,0,1-0.6,1.3-1c6.3-7.1,12.5-14.2,18.7-21.3c1.5-1.7,3.1-2.5,5.3-2.4
		c3.9,0.1,7.8,0,11.7,0c0.6,0,1.2,0,1.8,0.1c1.3,0.3,1.7,1.2,1,2.4c-0.4,0.6-0.9,1.2-1.4,1.7c-8.4,8.9-16.8,17.8-25.2,26.7
		c-0.8,0.8-0.8,1.4-0.3,2.4c4.6,8.4,9.2,16.8,13.8,25.1c1.8,3.3,1.2,4.3-2.5,4.3c-3.3,0-6.5-0.1-9.8,0c-2.1,0.1-3.4-0.8-4.4-2.6
		c-3.6-6.8-7.3-13.6-10.9-20.4c-0.5-0.9-1-1.3-2.1-1.3c-2.6,0.1-5.3,0.1-7.9,0c-1.1,0-1.5,0.3-1.7,1.4c-1.3,6.5-2.7,13.1-4.1,19.6
		c-0.6,2.9-1.2,3.3-4.1,3.3c-3.1,0-6.1,0-9.2,0c-2.2,0-3-1-2.6-3.1c3-14,6-28.1,9-42.1c1-4.8,2.1-9.7,3.1-14.5c0.5-2.3,1.3-3,3.6-3
		c3.1,0,6.1,0,9.2,0c2.7,0,3.5,1,2.9,3.6c-1.4,6.5-2.8,13-4.1,19.5C309.6,30.6,309.6,31.1,309.4,31.8z"/>
	<path class="st0" d="M405.4,31.8c3.1,0,6.1,0,9.1,0c0.4,0,0.8-0.5,1.1-0.9c6.4-7.2,12.7-14.4,19-21.7c1.3-1.5,2.8-2.2,4.8-2.2
		c4.1,0.1,8.1,0,12.2,0c1.1,0,2.5-0.2,2.8,1.1c0.2,0.8-0.5,2-1.1,2.7c-8.4,9-16.8,18-25.3,26.9c-1.1,1.1-1.1,1.9-0.4,3.2
		c4.6,8.4,9.2,16.8,13.8,25.1c0.3,0.6,0.8,1.4,0.8,2.1c0,1.3-0.9,1.8-2.1,1.8c-4.1,0-8.1,0-12.2,0c-1.6,0-2.5-1-3.2-2.3
		c-3.6-6.6-7.2-13.2-10.6-19.9c-0.8-1.6-1.7-2.2-3.5-2.1c-2.1,0.2-4.3,0.2-6.4,0c-1.5-0.1-2,0.5-2.3,1.9c-1.3,6.5-2.7,13-4.1,19.5
		c-0.5,2.4-1.2,2.9-3.7,2.9c-3.2,0-6.3,0-9.5,0c-2.3,0-3.1-1-2.6-3.2c2.7-12.8,5.4-25.6,8.1-38.3c1.3-6,2.5-12,3.8-18
		c0.6-2.7,1.3-3.3,4.1-3.3c3,0,5.9,0,8.9,0c2.6,0,3.4,1,2.8,3.5c-1.4,6.5-2.8,13.1-4.2,19.6C405.5,30.6,405.5,31.1,405.4,31.8z"/>
	<path class="st0" d="M362.3,69.8c-1.7,0-3.4,0-5.1,0c-2,0-2.9-1.1-2.5-3.1c2.3-11.1,4.7-22.2,7.1-33.3c1.7-7.8,3.3-15.6,5-23.4
		c0.5-2.4,1.3-3.1,3.8-3.1c3.1,0,6.1,0,9.2,0c2.5,0,3.3,1,2.8,3.3c-2.3,10.9-4.6,21.9-7,32.8c-1.7,7.8-3.3,15.6-5,23.4
		c-0.6,2.7-1.3,3.3-4,3.3C365.2,69.9,363.7,69.8,362.3,69.8z"/>
</g>
</svg>
